<svg t="1665117082253" class="icon" viewBox="0 0 1024 1024" version="1.1" xmlns="http://www.w3.org/2000/svg" p-id="1552" width="16" height="16"><path d="M448 896c-21.333333-85.333333-106.666667-298.666667-106.666667-298.666667V170.666667h344.789334a85.333333 85.333333 0 0 1 80.554666 57.152l89.6 256c19.413333 55.466667-21.76 113.514667-80.554666 113.514666H554.666667v213.333334c0 64-42.666667 85.333333-106.666667 85.333333z" fill="#d81e06" p-id="1553"></path><path d="M406.613333 906.346667A42.666667 42.666667 0 0 0 448 938.666667c35.285333 0 72.704-5.589333 102.144-26.624C582.4 889.002667 597.333333 853.184 597.333333 810.666667v-170.666667h178.389334c88.170667 0 149.952-87.061333 120.810666-170.282667l-89.6-256A128 128 0 0 0 686.122667 128H341.333333a42.666667 42.666667 0 0 0-42.666666 42.666667v426.666666a42.666667 42.666667 0 0 0 3.050666 15.850667l0.938667 2.346667a4089.322667 4089.322667 0 0 1 12.586667 32c8.32 21.205333 19.562667 50.346667 31.466666 82.133333 24.170667 64.426667 49.92 136.789333 59.904 176.682667zM384 589.162667V213.333333h302.122667a42.666667 42.666667 0 0 1 40.277333 28.586667l89.6 256A42.666667 42.666667 0 0 1 775.722667 554.666667H554.666667a42.666667 42.666667 0 0 0-42.666667 42.666666v213.333334c0 21.482667-6.421333 28.352-11.477333 31.957333-4.330667 3.093333-11.093333 6.016-21.056 8.021333-13.653333-44.437333-34.389333-101.717333-52.842667-150.954666a6676.48 6676.48 0 0 0-41.92-108.736L384 589.162667zM128 597.333333a42.666667 42.666667 0 0 0 42.666667 42.666667h42.666666a42.666667 42.666667 0 0 0 42.666667-42.666667V170.666667a42.666667 42.666667 0 0 0-42.666667-42.666667H170.666667a42.666667 42.666667 0 0 0-42.666667 42.666667v426.666666z" fill="#d81e06" p-id="1554"></path></svg>